<svg width="36" height="36" viewBox="0 0 36 36" fill="none" xmlns="http://www.w3.org/2000/svg">
<g clip-path="url(#clip0_768_2)">
<path d="M18 36C27.9411 36 36 27.9411 36 18C36 8.05887 27.9411 0 18 0C8.05887 0 0 8.05887 0 18C0 27.9411 8.05887 36 18 36Z" fill="#8247E5"/>
<path d="M24.172 13.9545C23.734 13.7045 23.17 13.7045 22.668 13.9545L19.159 16.0225L16.779 17.3385L13.332 19.4065C12.893 19.6565 12.329 19.6565 11.828 19.4065L9.133 17.7765C8.90409 17.6416 8.71432 17.4494 8.58244 17.2188C8.45056 16.9882 8.38112 16.7271 8.381 16.4615V13.3285C8.381 12.8265 8.631 12.3255 9.133 12.0125L11.828 10.4455C12.266 10.1955 12.83 10.1955 13.332 10.4455L16.026 12.0755C16.465 12.3255 16.778 12.8265 16.778 13.3905V15.4585L19.159 14.0805V11.9505C19.159 11.4485 18.909 10.9465 18.407 10.6335L13.394 7.68848C12.956 7.43848 12.392 7.43848 11.89 7.68848L6.752 10.6965C6.251 10.9465 6 11.4485 6 11.9495V17.8395C6 18.3415 6.25 18.8425 6.752 19.1555L11.828 22.1015C12.266 22.3515 12.83 22.3515 13.332 22.1015L16.778 20.0955L19.159 18.7175L22.606 16.7115C23.044 16.4615 23.608 16.4615 24.11 16.7115L26.804 18.2785C27.243 18.5285 27.556 19.0305 27.556 19.5945V22.7275C27.556 23.2285 27.306 23.7305 26.804 24.0435L24.172 25.6105C23.734 25.8605 23.17 25.8605 22.668 25.6105L19.974 24.0435C19.7449 23.9086 19.5551 23.7162 19.4232 23.4854C19.2913 23.2546 19.222 22.9933 19.222 22.7275V20.7225L16.84 22.1005V24.1675C16.84 24.6695 17.09 25.1705 17.592 25.4835L22.667 28.4295C23.106 28.6795 23.67 28.6795 24.171 28.4295L29.247 25.4835C29.686 25.2335 29.999 24.7315 29.999 24.1675V18.2145C29.999 17.7145 29.749 17.2125 29.247 16.8985L24.171 13.9535L24.172 13.9545Z" fill="white"/>
</g>
<defs>
<clipPath id="clip0_768_2">
<rect width="36" height="36" fill="white"/>
</clipPath>
</defs>
</svg>
